<svg xmlns="http://www.w3.org/2000/svg" width="64" height="64"><defs><style>.b{fill:#fff}</style></defs><path fill="#c9002c" d="M0 0h64v64H0z"/><path class="b" d="M45.426 26.497a13.452 13.452 0 10-21.783 10.531v13.157a.739.739 0 001.018.685l7.313-2.971 7.313 2.976a.739.739 0 001.017-.685V37.028a13.394 13.394 0 005.122-10.531zm-6.6 22.591l-6.574-2.67a.739.739 0 00-.556 0l-6.574 2.67V38.043a13.458 13.458 0 0013.7 0zM31.973 38.44a11.943 11.943 0 1111.974-11.943A11.972 11.972 0 0131.973 38.44z"/><path class="b" d="M31.974 16.463a10.033 10.033 0 1010.055 10.033 10.056 10.056 0 00-10.055-10.033zm0 18.588a8.555 8.555 0 118.577-8.555 8.576 8.576 0 01-8.577 8.555z"/><path class="b" d="M35.928 24.519l-1.936-.31-.9-1.743a1.263 1.263 0 00-2.247 0l-.895 1.743-1.936.31a1.263 1.263 0 00-.694 2.139l1.382 1.384-.3 1.931a1.262 1.262 0 001.817 1.322l1.752-.885 1.752.886a1.263 1.263 0 001.817-1.322l-.3-1.931 1.382-1.384a1.263 1.263 0 00-.694-2.139zm-2 2.745a.739.739 0 00-.207.636l.3 1.887-1.71-.864a.739.739 0 00-.667 0l-1.71.864.3-1.887a.739.739 0 00-.207-.636l-1.349-1.352 1.889-.3a.739.739 0 00.541-.392l.874-1.7.874 1.7a.739.739 0 00.541.392l1.889.3z"/></svg>