<svg xmlns="http://www.w3.org/2000/svg" width="64" height="64"><path fill="#c9002c" d="M0 0h64v64H0z"/><path d="M21.774 27.888a1.444 1.444 0 011.444 1.444 10.068 10.068 0 016.255 2.167h3.135a6.486 6.486 0 014.845 2.167h4.543a7.222 7.222 0 016.523 4.118 19 19 0 01-15.19 7.438 20.869 20.869 0 01-10.2-2.395 1.442 1.442 0 01-1.355.95H17.44a1.444 1.444 0 01-1.444-1.444v-13a1.444 1.444 0 011.444-1.444zm1.446 4.333v7.256l.065.046a17.184 17.184 0 0010.046 2.811 16.225 16.225 0 0011.317-4.521l.192-.192-.174-.144a4.325 4.325 0 00-2.373-.91l-.3-.01h-3.046a6.607 6.607 0 01.16 1.444v1.444h-13v-2.89h9.808l-.049-.113a3.613 3.613 0 00-3.022-2.045l-.237-.007h-4.232a7.2 7.2 0 00-5.154-2.167zm-2.891-1.444h-1.444v10.112h1.444zm20.223-8.667a4.333 4.333 0 11-4.333 4.333 4.333 4.333 0 014.333-4.333zm0 2.889a1.444 1.444 0 101.444 1.445 1.444 1.444 0 00-1.444-1.445zm-10.111-7.222a4.333 4.333 0 11-4.333 4.333 4.333 4.333 0 014.333-4.333zm0 2.889a1.444 1.444 0 101.444 1.444 1.444 1.444 0 00-1.444-1.444z" fill="#fff"/></svg>