<svg xmlns="http://www.w3.org/2000/svg" width="298.158" height="59.72"><defs><style>.b{fill:#fff;fill-rule:evenodd}</style></defs><path d="M62.776 24.447v1.88l2.139-.385v-.973a2.716 2.716 0 00-.509-1.845 2.445 2.445 0 00-1.777-.475H57.2a2.479 2.479 0 00-1.777.475 2.761 2.761 0 00-.5 1.845v5.195a2.727 2.727 0 00.5 1.856 2.388 2.388 0 001.777.5h5.432a2.365 2.365 0 001.777-.5 2.682 2.682 0 00.509-1.856v-1.132l-2.139-.5v2.128h-5.662v-6.213zm9.212-1.8l-5.172 9.869h2.139L70 30.356h5.817l1.064 2.162h2.4l-5.267-9.871zm-1.132 5.885l2.037-4.018 2 4.018zm17.271-5.885l-2.773 3.339-2.942-3.339h-2.8l4.414 4.753-4.346 5.116h2.49l3.09-3.825 3.4 3.825h2.875l-4.946-5.342 3.983-4.527zm8.33 0l-5.172 9.869h2.207l1.041-2.162h5.749l1.132 2.162h2.377l-5.274-9.869zm-1.132 5.93l2.06-4.018 1.992 3.972zm13.581-5.93l-4.957 9.869h2.264l3.7-7.786 3.656 7.786h2.467l-5.025-9.869zm11.4 0h-2.116v9.869h1.754l7.617-7.288v7.288h2.15v-9.869h-1.754l-7.605 7.277zm15.437 0H133.6v9.869h2.139v-4.253h6.643v4.255h2.128v-9.871h-2.128v3.814h-6.642zm11.216 5.761h4.108v-1.967h-4.108zm8.711-5.761h-2.139v9.869h1.777l7.617-7.288v7.288h2.105v-9.869h-1.754l-7.605 7.277zm15.414 0h-2.116v9.869h2.116v-4.253h6.666v4.255h2.105v-9.871h-2.105v3.814h-6.666zm20.519 0h-2.139v4.436l-4.051-4.436H182.9l4.527 4.652-5.365 5.217h2.965l4.528-4.669v4.674h2.139v-4.674l4.527 4.674h2.988l-5.387-5.217 4.527-4.652H195.8l-4.074 4.436zm11.736 0h-2.128v9.869h1.777l7.594-7.288v7.288h2.128v-9.869h-1.777l-7.594 7.277zm15.426 0h-2.116v9.869h2.116v-4.253h6.666v4.255h2.105v-9.871h-2.105v3.814h-6.666zm14.826 0h-2.116v9.869h1.754l7.617-7.288v7.288h2.139v-9.869H241.2l-7.605 7.277zm13.3 0v9.869h2.139V28.67h5.659a2.5 2.5 0 001.6-.475 2.117 2.117 0 00.464-1.449v-2.184a1.845 1.845 0 00-.543-1.494 2.264 2.264 0 00-1.449-.419zm6.791 1.686a1.132 1.132 0 01.713.158.747.747 0 01.238.622v1.134a.8.8 0 01-.238.645 1.3 1.3 0 01-.713.136h-4.674v-2.692zm7.73-1.686h-2.128v9.869h1.777l7.617-7.288v7.288h2.105v-9.869h-1.754l-7.617 7.277zm15.448 0h-2.14v9.869h2.116v-4.253h6.643v4.255h2.128v-9.871h-2.128v3.814h-6.643zm12.687 0v9.869h2.139v-8.069h6.474v-1.8zM61.407 49.675V46.84a2.835 2.835 0 00-3.2-3.027 9.017 9.017 0 00-2.707.464v1.265a6.407 6.407 0 012.611-.545c1.329 0 2.066.737 2.066 1.794v.272a9.273 9.273 0 00-1.97-.32c-1.6 0-3.2.561-3.2 2.435a2.274 2.274 0 002.515 2.194 4.373 4.373 0 002.851-.961 1.265 1.265 0 001.281.865 2.8 2.8 0 00.913-.176v-.96a2.291 2.291 0 01-.545.1.5.5 0 01-.561-.561zm-5.221-.593c0-1.009 1.153-1.329 2.21-1.329a11.371 11.371 0 011.826.192v1.329a3.363 3.363 0 01-2.467 1.041c-.785 0-1.6-.352-1.6-1.233zm8.793 2.114V47.99H66.4l2.659 3.2h1.361l-3.091-3.62 2.691-3.636h-1.358l-2.29 3.043H64.9v-3.036h-1.187v7.191zm14.047 1.922v-3.074H77.9v-6.1h-1.181v6.036h-3.94v-6.039h-1.234v7.191h6.215v1.922zm2.611-1.922l4.389-5.269v5.269h1.233v-7.255h-1.042l-4.469 5.285v-5.285h-1.121v7.191zm7.32-3.62a3.844 3.844 0 103.843-3.843 3.844 3.844 0 00-3.845 3.844zm6.5 0a2.659 2.659 0 11-2.657-2.658 2.547 2.547 0 012.659 2.659zm4.116 3.62v-3.074h4.116v3.075h1.185v-7.256h-1.185v3.027H99.51v-3.027h-1.265v7.191zm7.063-3.62a3.684 3.684 0 004.02 3.8 5.35 5.35 0 002.515-.545v-1.156a5.173 5.173 0 01-2.37.561c-1.425 0-2.8-.593-2.931-2.114h5.718a3.347 3.347 0 00-3.347-4.308 3.572 3.572 0 00-3.6 3.764zm5.8-.432h-4.581a2.258 2.258 0 012.419-2.146 1.954 1.954 0 012.162 2.146zm3.892-1.874v-1.329h-1.057v10.491h1.185V50.09a3.684 3.684 0 002.787 1.281 3.78 3.78 0 000-7.56 3.828 3.828 0 00-2.915 1.377zm5.3 2.386a2.483 2.483 0 01-2.563 2.579 2.947 2.947 0 01-2.659-1.746v-1.825a2.947 2.947 0 012.659-1.746 2.483 2.483 0 012.515 2.659zm4.116 3.62v-3.154h4.18v3.075h1.233v-7.256h-1.233v3.027h-4.18v-3.027h-1.184v7.191zm7.111-3.62a3.844 3.844 0 103.845-3.766 3.684 3.684 0 00-3.844 3.764zm6.407 0a2.659 2.659 0 11-2.579-2.739 2.547 2.547 0 012.643 2.659zm2.435 0a3.652 3.652 0 003.988 3.8 5.35 5.35 0 002.515-.545v-1.155a5.189 5.189 0 01-2.338.561c-1.458 0-2.835-.593-2.979-2.114h5.734a3.331 3.331 0 00-3.347-4.313 3.54 3.54 0 00-3.572 3.764zm5.814-.513h-4.629a2.29 2.29 0 012.435-2.146 1.938 1.938 0 012.274 2.146zm6.086.513a3.828 3.828 0 103.908-3.844 3.668 3.668 0 00-3.8 3.764zm6.407 0a2.627 2.627 0 11-2.5-2.739 2.515 2.515 0 012.659 2.659zm9.946.224a3.444 3.444 0 00-3.524-3.524 3.2 3.2 0 00-2.659 1.377 4.276 4.276 0 011.73-2.515c1.6-.961 2.8-.641 3.812-1.377V40.61c-1.057 1.009-2.483.448-4.533 1.73a5.558 5.558 0 00-2.082 4.8 3.716 3.716 0 003.716 4.212 3.38 3.38 0 003.67-3.562zm-6.182 0a2.451 2.451 0 012.515-2.37 2.29 2.29 0 012.467 2.37 2.322 2.322 0 01-2.467 2.435 2.354 2.354 0 01-2.37-2.515zm19.044 5.318v-3.154h-1.057v-6.1h-1.233v6.036h-3.2v-6.039h-1.185v6.039h-3.2v-6.039H171.7v7.191h9.946v1.922zm.913-5.542a3.684 3.684 0 004.212 3.716 5.349 5.349 0 002.515-.545v-1.152a5.253 5.253 0 01-2.386.561c-1.409 0-2.787-.593-2.931-2.114h5.734a3.347 3.347 0 00-3.347-4.308 3.572 3.572 0 00-3.62 3.764zm5.862-.513h-4.629a2.274 2.274 0 012.435-2.146 1.938 1.938 0 012.322 2.146zm2.338.561a3.636 3.636 0 003.844 3.748 5.205 5.205 0 002.338-.5v-1.2a4.709 4.709 0 01-2.162.561 2.659 2.659 0 110-5.318 3.556 3.556 0 012.114.641v-1.182a4.517 4.517 0 00-2.242-.561 3.668 3.668 0 00-3.892 3.812zm10.939 3.572V45.19h2.659v-1.249h-6.373v1.105h2.659v6.086zm8.008 0c1.6 0 2.338-.833 2.338-2.018a1.6 1.6 0 00-1.185-1.6 1.73 1.73 0 00.961-1.6c0-1.281-.961-1.922-2.242-1.922h-3.94v7.191zm-2.835-3.2h2.707c.641 0 1.281.192 1.281 1.009s-.561 1.057-1.329 1.057h-2.656zm0-3.059h2.611a.977.977 0 011.089 1.057c0 .721-.448.961-1.089.961h-2.608zm6.5 2.563a3.844 3.844 0 103.844-3.764 3.684 3.684 0 00-3.844 3.764zm6.407 0a2.515 2.515 0 01-2.611 2.659 2.659 2.659 0 010-5.318 2.515 2.515 0 012.611 2.659z" fill="#fff"/><path class="b" d="M14.08 5.24c6 0 11.27 1.23 14.05 3v2.62c-2.78-1.8-8-3-14-3S2.81 9.09 0 10.89V8.27c2.81-1.8 8-3 14.08-3z"/><path class="b" d="M14.08 10.5c6 0 11.27 1.21 14.05 3v2.64c-2.78-1.82-8-3-14-3S2.81 14.33 0 16.15v-2.64c2.81-1.8 8-3 14.08-3z"/><path class="b" d="M14.08 15.73c6 0 11.27 1.22 14.05 3v2.62c-2.78-1.82-8-3-14-3S2.81 19.57 0 21.39v-2.62c2.81-1.82 8-3 14.08-3z"/><path class="b" d="M14.08 21c6 0 11.27 1.21 14.05 3v2.62c-2.78-1.81-8-3-14-3S2.81 24.82 0 26.63V24c2.81-1.83 8-3 14.08-3z"/><path class="b" d="M14.08 26.21c6 0 11.27 1.23 14.05 3v2.62c-2.78-1.8-8-3-14-3S2.81 30.06 0 31.86v-2.62c2.81-1.8 8-3 14.08-3z"/><path class="b" d="M14.08 31.47c6 0 11.27 1.21 14.05 3v2.64c-2.78-1.82-8-3-14-3S2.81 35.3 0 37.12v-2.64c2.81-1.8 8-3 14.08-3z"/><path class="b" d="M14.08 36.7c6 0 11.27 1.22 14.05 3v2.62c-2.78-1.82-8-3-14-3S2.81 40.54 0 42.36v-2.62c2.81-1.82 8-3 14.08-3z"/><path class="b" d="M14.08 41.94c6 0 11.27 1.24 14.05 3v2.66c-2.78-1.81-8-3-14-3S2.81 45.79 0 47.6V45c2.81-1.8 8-3 14.08-3z"/><path class="b" d="M14.08 47.2c6 0 11.27 1.21 14.05 3v2.62c-2.78-1.8-8-3-14-3S2.81 51 0 52.83v-2.62c2.81-1.8 8-3 14.08-3z"/><path d="M46.23 55.16a25.53 25.53 0 01-9.74 2.07c-4.84 0-8.06-1.84-11.64-3.06a36.55 36.55 0 00-13-1.69A30.08 30.08 0 000 55.7v2.58A30.42 30.42 0 0111.84 55a36.75 36.75 0 0113 1.72c3.58 1.19 6.8 3 11.64 3a25.9 25.9 0 009.74-2.06z" fill="#c9002c" fill-rule="evenodd"/><path class="b" d="M46.23 49.06a25.91 25.91 0 01-9.74 2.08 19.06 19.06 0 01-5.72-.9v2.57a18.77 18.77 0 005.72.88 26.08 26.08 0 009.74-2zm0-5.26a25.9 25.9 0 01-9.74 2.06 19.08 19.08 0 01-5.72-.86v2.57a19.4 19.4 0 005.72.88 25.89 25.89 0 009.74-2zm0-5.19a26.08 26.08 0 01-9.74 2 18.77 18.77 0 01-5.72-.88v2.58a19.74 19.74 0 005.72.88 26.08 26.08 0 009.74-2.05zm0-5.3a25.53 25.53 0 01-9.74 2.07 18.75 18.75 0 01-5.72-.9v2.58a19.06 19.06 0 005.72.9 26.1 26.1 0 009.74-2.07zm0-5.24a25.91 25.91 0 01-9.74 2.08 18.74 18.74 0 01-5.72-.91v2.58a19.08 19.08 0 005.72.88 26.08 26.08 0 009.74-2.05zm0-5.24a25.9 25.9 0 01-9.74 2.06 19.08 19.08 0 01-5.72-.89v2.57a19.4 19.4 0 005.72.88 25.89 25.89 0 009.74-2.05zm0-5.23a26.08 26.08 0 01-9.74 2 19.74 19.74 0 01-5.72-.88v2.56a19.06 19.06 0 005.72.9 25.53 25.53 0 009.74-2.08zM14.08 0c6 0 11.27 1.22 14.05 3v2.66c-2.78-1.81-8-3-14-3S2.81 3.85 0 5.66V3c2.81-1.78 8-3 14.08-3z"/></svg>