<svg xmlns="http://www.w3.org/2000/svg" width="64" height="64"><defs><style>.b{fill:none}</style></defs><g stroke="#fff" fill="none"><circle cx="32" cy="32" r="32" stroke="none"/><circle class="b" cx="32" cy="32" r="31.5"/></g><path class="b" d="M16 16h32v32H16z"/><path d="M38.956 36.393v9.25a.67.67 0 01-.353.586.716.716 0 01-.7-.008l-5.9-3.427-5.905 3.424a.716.716 0 01-.7.008.67.67 0 01-.352-.587v-9.245a10.556 10.556 0 01-3.547-11.976A11.112 11.112 0 0132 17.218a11.112 11.112 0 0110.5 7.2 10.556 10.556 0 01-3.545 11.973zM32 36.063a8.215 8.215 0 008.347-8.077A8.215 8.215 0 0032 19.909a8.215 8.215 0 00-8.347 8.077A8.215 8.215 0 0032 36.063zm0-2.692a5.477 5.477 0 01-5.565-5.384A5.477 5.477 0 0132 22.603a5.477 5.477 0 015.565 5.384A5.477 5.477 0 0132 33.371z" fill="#fff"/></svg>