<svg xmlns="http://www.w3.org/2000/svg" width="64" height="64"><defs><style>.b{fill:none}</style></defs><g stroke="#fff" fill="none"><circle cx="32" cy="32" r="32" stroke="none"/><circle class="b" cx="32" cy="32" r="31.5"/></g><path class="b" d="M16 16h32v32H16z"/><path d="M45 19v2.842c0 13.68-7.761 19.895-17.333 19.895h-2.748c.306-4.28 1.661-6.871 5.2-9.949 1.739-1.513 1.592-2.387.735-1.886-5.9 3.453-8.828 8.12-8.958 15.572V46H19a26.183 26.183 0 01.5-5.3 44.126 44.126 0 01-.5-7.489A14.329 14.329 0 0133.444 19c2.889 0 5.778 1.421 11.556 0z" fill="#fff"/></svg>