<svg xmlns="http://www.w3.org/2000/svg" width="55.899" height="14.978"><path data-name="Контур 188" d="M0 0v13.979L13.979 0z" fill="#92cfae" fill-rule="evenodd"/><path data-name="Контур 189" d="M.999 14.978h13.979V.999z" fill="#2a8288" fill-rule="evenodd"/><g data-name="Сгруппировать 250"><path data-name="Контур 190" d="M22.83 7.164c1.626 0 2.49-.8 2.49-2.283V4.8c0-1.591-.905-2.22-2.49-2.22h-1.687v4.584zM17.831 0h5.081c3.58 0 5.617 1.613 5.617 4.776v.084c0 3.163-2.16 4.671-5.514 4.671h-1.872v5.446h-3.312zm17.292 12.4c1.6 0 2.4-.711 2.4-2.074v-.084c0-1.341-.807-2.074-2.483-2.074h-1.857V12.4zm.122 2.577h-5.289V0h9.407v2.64h-6.157l-.023 3.141h2.16c3.331 0 5.31 1.488 5.31 4.483v.084c0 2.932-1.838 4.629-5.411 4.629zM43.061.021h3.478v6.443L51.908 0H55.6l-6.076 7.091 6.375 7.887h-4.057l-5.3-6.715v6.715h-3.481z" fill="#fff" fill-rule="evenodd"/></g></svg>