<svg xmlns="http://www.w3.org/2000/svg" width="55.174" height="16.4"><g fill="#fff" fill-rule="evenodd"><path data-name="Контур 185" d="M55.173 16.4V0h-17.1v16.4zm-3.9-11.69a7.846 7.846 0 00-3.869-1.15 4.416 4.416 0 00-3.252 1.262 4.025 4.025 0 00-1.317 3.084 4.236 4.236 0 001.29 3.084 4.737 4.737 0 003.252 1.177 7.419 7.419 0 004.037-1.262v1.766a8.468 8.468 0 01-4.121 1.009 6.492 6.492 0 01-3.253-.757 6.294 6.294 0 01-2.1-2.1 6.145 6.145 0 01-.785-2.915 5.433 5.433 0 011.794-4.18 6.1 6.1 0 014.346-1.71 9.681 9.681 0 013.981.953v1.738zM36.163 0h-17.1v16.4h17.1zM24.307 2.439h2.972a5.267 5.267 0 012.214.365 2.873 2.873 0 011.178 1.037 2.83 2.83 0 01.421 1.542 2.425 2.425 0 01-1.738 2.383 3.2 3.2 0 011.991 1.037 2.8 2.8 0 01.729 1.878 3.191 3.191 0 01-.448 1.542 3.508 3.508 0 01-1.318 1.122 4.936 4.936 0 01-2.159.421h-3.842z"/><path data-name="Контур 186" d="M26.998 7.289a2.876 2.876 0 001.85-.477 1.778 1.778 0 00.56-1.318c0-1.065-.7-1.626-2.074-1.626h-1.4v3.42h1.065zm.449 1.458h-1.514v3.56h1.626a7.035 7.035 0 001.766-.168 2.112 2.112 0 00.785-.673 1.792 1.792 0 00.28-.925 1.821 1.821 0 00-.309-.925 1.471 1.471 0 00-.841-.673 4.919 4.919 0 00-1.793-.196zM17.102 0H0v16.4h17.1zM5.215 13.765V2.439h2.972a5.129 5.129 0 012.187.365 2.652 2.652 0 011.206 1.065 2.919 2.919 0 01.449 1.514 2.543 2.543 0 01-1.763 2.41 3.238 3.238 0 011.991 1.009 2.674 2.674 0 01.729 1.878 2.567 2.567 0 01-.449 1.542 3.165 3.165 0 01-1.29 1.122 5.068 5.068 0 01-2.187.421H5.215z"/><path data-name="Контур 187" d="M8.243 3.869h-1.4v3.42h1.093a2.84 2.84 0 001.823-.477 1.719 1.719 0 00.561-1.29c-.003-1.092-.704-1.653-2.077-1.653zm.112 4.878H6.841v3.56h1.6a6.943 6.943 0 001.822-.168 1.8 1.8 0 00.757-.617 2.336 2.336 0 00.28-.981 1.724 1.724 0 00-.308-.925 1.5 1.5 0 00-.841-.645 4.987 4.987 0 00-1.796-.224z"/></g></svg>