<svg xmlns="http://www.w3.org/2000/svg" width="64" height="64"><path fill="#c9002c" d="M0 0h64v64H0z"/><path d="M16 16h32v32H16z" fill="none"/><path d="M40.129 39v7h-2.71v-7a15.435 15.435 0 018.734-14.022l1.122 2.548A12.633 12.633 0 0040.129 39zm-13.548 0v7h-2.709v-7a12.633 12.633 0 00-7.148-11.473l1.123-2.549A15.439 15.439 0 0126.581 39zM32 32a6.89 6.89 0 01-6.774-7A6.89 6.89 0 0132 18a6.89 6.89 0 016.774 7A6.89 6.89 0 0132 32zm0-2.8a4.134 4.134 0 004.064-4.2 4.066 4.066 0 10-8.129 0A4.134 4.134 0 0032 29.2z" fill="#fff"/></svg>